<mxfile host="app.diagrams.net" modified="2023-08-26T10:10:00.046Z" agent="Mozilla/5.0 (Windows NT 10.0; Win64; x64) AppleWebKit/537.36 (KHTML, like Gecko) Chrome/116.0.0.0 Safari/537.36" version="21.6.9" etag="xn2mFxJ51GNvx_JCNirb" type="github">
  <diagram name="第 1 页" id="Joufu26cPP3N8609gZyR">
    <mxGraphModel>
      <root>
        <mxCell id="0" />
        <mxCell id="1" parent="0" />
      </root>
    </mxGraphModel>
  </diagram>
</mxfile>
